<svg xmlns="http://www.w3.org/2000/svg" xmlns:xlink="http://www.w3.org/1999/xlink" version="1.1" x="0px" y="0px" viewBox="0 0 256 256" enable-background="new 0 0 256 256" xml:space="preserve">
  <g>
    <g>
      <g>
        <path fill="#000000" d="M52,13.1c-2.1,0.9-3.6,2.3-4.7,4.6c-1,1.8-1,2.1-1,27.2c0,23.4,0,25.5,0.8,26.8l0.8,1.5h54h54l0.8-1.8c0.7-1.5,0.8-4.2,0.8-26.8V19.5l-1.3-2.2c-0.7-1.2-2.2-2.8-3.2-3.5l-1.9-1.2l-48.7-0.1C59.5,12.4,53.4,12.5,52,13.1z M106.4,32.9V40h7.1h7.1v4.6v4.6h-7.1h-7.1v7.1v7.1h-4.6h-4.6v-7.1v-7.1H90h-7.1v-4.6V40H90h7.1v-7.1v-7.1h4.6h4.6V32.9L106.4,32.9z"/>
        <path fill="#000000" d="M47.2,81.8c-0.2,0.4-0.4,3-0.6,5.7C45.2,112,60.7,135,84.1,142.8c5.7,1.9,11.3,2.8,17.7,2.8c14.5,0,27.4-5.1,37.8-15c9.8-9.3,15.6-21,17.2-34.5c0.5-4.3,0.3-11.3-0.4-14.1l-0.2-1h-54.3C51.5,81,47.4,81.1,47.2,81.8z"/>
        <path fill="#000000" d="M133.7,144.5c-1.2,3-8.9,21.3-16.9,40.6c-13.8,33.1-14.7,35.1-15.2,33.9c-0.3-0.7-7.7-18.6-16.6-39.8c-8.8-21.2-16.2-38.6-16.3-38.8c-0.3-0.4-10.3,1.8-16.6,3.6c-19.5,5.6-33.9,15.1-39.2,25.6c-1.1,2.1-2.1,5-2.4,6.4c-0.3,1.5-0.5,13.7-0.5,29.8v27.3l1.3,2.4c0.9,1.8,1.9,2.9,3.6,3.9l2.2,1.4l75,0.1c58.4,0.1,74.8,0,74.2-0.5c-8.5-5.5-11.9-8.4-16.2-13.8c-7.8-9.8-12.4-24.3-11.6-37c0.5-7.6,4.9-19.7,10.2-27.8c3.1-4.7,9.5-11.2,13.3-13.5c1.4-0.9,2.6-1.8,2.6-1.9c0-1-24.1-7.3-28-7.3C136.2,139.2,135,141.6,133.7,144.5z"/>
        <path fill="#000000" d="M188.9,142.4c-10.7,1.2-20.8,6.2-29.1,14.1c-6.3,6-10.5,12.8-13,20.7c-2,6.3-2.4,8.8-2.4,16.4c0,6.1,0.2,7.8,1.2,11.6c4.9,18.4,18.6,32.3,36.7,37.2c4.1,1.1,5.3,1.2,12.8,1.2c7.6,0,8.7-0.1,12.9-1.2c34.3-9.2,48.9-49.3,28.7-78.6c-2.9-4.2-9.5-10.6-13.7-13.3c-6.8-4.4-14.4-7.1-22.3-8C195.8,141.9,193.9,141.9,188.9,142.4z M197.2,169.7l0,14l2.4,1.4c3.5,2,5.2,4.9,5.2,8.9c0,4.7-2,7.7-6.2,9.7c-4.9,2.3-11,0.1-13.4-4.7l-0.9-1.8l-14.9-0.1l-14.8-0.1l-0.1-2.9l-0.1-2.9h14.9h14.9l1.2-2.2c0.8-1.5,1.9-2.7,3.6-3.8l2.4-1.6v-14v-14h3h3V169.7z M222.1,162c2.7,1.3,3,5.7,0.6,7.6c-2.9,2.3-7.5,0.2-7.5-3.5c0-2.1,0.6-3.3,2.2-4.1C219,161.2,220.5,161.1,222.1,162z M170,163.9c1.2,1,1.4,1.5,1.4,3.2c0,2.7-1.4,4.3-4,4.7c-3.6,0.5-6.3-3.5-4.6-6.7c0.9-1.8,1.9-2.4,4.1-2.4C168,162.7,169,163,170,163.9z M238.1,187.5c2.5,2,2.7,4.6,0.5,6.8c-2.1,2.1-4.4,2.2-6.3,0.2c-2.9-2.9-0.9-7.9,3.1-7.9C236.3,186.7,237.6,187,238.1,187.5z M172.4,216.1c1.2,1.1,1.5,1.7,1.5,3.3c0,1.6-0.3,2.2-1.5,3.3c-1,0.9-2,1.3-3.1,1.3s-2.1-0.4-3.1-1.3c-1.2-1.1-1.5-1.7-1.5-3.3c0-1.6,0.3-2.2,1.5-3.3C168.3,214.3,170.4,214.3,172.4,216.1z M225.4,218c2.6,2.6,1.3,7.1-2.2,7.7c-4.6,0.9-7.6-4.4-4.4-7.7c1.1-1.1,1.8-1.3,3.3-1.3C223.7,216.6,224.4,216.9,225.4,218z M199.7,229.6c0.8,0.9,1.2,1.8,1.2,2.8c0,4.6-5.1,6.6-8.1,3.1c-2.1-2.4-1.2-5.8,1.8-7.1C196.5,227.6,198.1,227.9,199.7,229.6z"/>
      </g>
    </g>
  </g>
</svg>
