<svg xmlns="http://www.w3.org/2000/svg"
     width="200" height="100"
     viewBox="0 0 210 60">
     <g xmlns="http://www.w3.org/2000/svg" id="booksultan_logo" transform="translate(-0.466 -1)">
	<g id="Group_7" transform="translate(0.466 14.467)">
		<path id="Path_1" class="st0" d="M16.8,20c0,2.6-2.1,4.6-4.6,4.6H3.8v-9.3h8.4c1.2,0,2.4,0.5,3.3,1.4c0.1,0.2,0.3,0.3,0.4,0.5    c1.3,0.1,2.8,0.2,4.4,0.3c-0.5-1.7-1.5-3.1-2.9-4.2c0.1-0.1,0.2-0.2,0.3-0.3c1.2-1.4,1.9-3.2,1.8-5c0-1.9-0.6-3.7-1.9-5.1    c-1.4-1.6-3.4-2.4-5.5-2.3H7.4C5.3,0.5,3.3,1.3,1.9,2.9C0.6,4.2,0,6.1,0,7.9v18.6c0,0.5,0.2,1,0.6,1.4c0.3,0.4,0.8,0.6,1.4,0.6    h10.3c2.3,0,4.4-0.9,6-2.5c1.6-1.6,2.5-3.7,2.5-6c0-0.6-0.1-1.2-0.2-1.8c-1.4-0.2-2.9-0.4-4.3-0.6C16.6,18.3,16.8,19.1,16.8,20z     M3.8,7.9c0-0.9,0.3-1.7,0.8-2.4c0.7-0.8,1.7-1.2,2.7-1.2h4.9c1-0.1,2,0.4,2.7,1.2c0.5,0.7,0.8,1.5,0.8,2.4c0,0.9-0.3,1.8-0.9,2.5    c-0.7,0.7-1.6,1.1-2.6,1.1H3.8V7.9z"/>
		<path id="Path_2" class="st0" d="M38.3,22.8c-2.4,2.4-6.4,2.4-8.9,0c-1-1-1.6-2.3-1.8-3.7c-1.3-0.1-2.6-0.3-3.9-0.5    c0.1,5.5,4.6,9.9,10.1,9.9c4.8,0,8.9-3.3,9.9-8c-1.3-0.1-2.6-0.2-3.9-0.3C39.6,21.2,39,22,38.3,22.8z"/>
		<path id="Path_3" class="st0" d="M29.4,13.9c2.4-2.4,6.4-2.5,8.8,0c0,0,0,0,0,0c1.2,1.1,1.9,2.7,1.8,4.4c1.3,0,2.5,0,3.8,0.1    c0,0,0,0,0,0c0-5.6-4.5-10.1-10.1-10.1c0,0,0,0,0,0c-5.4,0-9.8,4.2-10.1,9.5c1.2,0.1,2.5,0.1,3.8,0.2C27.7,16.4,28.3,15,29.4,13.9    z"/>
		<g id="Group_1" transform="translate(46.272 8.211)">
			<path id="Path_4" class="st0" d="M14.6,14.6c-2.4,2.4-6.4,2.4-8.9,0c-0.6-0.6-1-1.2-1.3-2c-1.4-0.1-2.7-0.1-4.1-0.2     c1.2,5.4,6.7,8.8,12.1,7.6c1.9-0.4,3.6-1.4,4.9-2.7c1.2-1.2,2.1-2.7,2.5-4.3c-1.4,0-2.7,0-4.1,0C15.4,13.5,15,14.1,14.6,14.6z"/>
			<path id="Path_5" class="st0" d="M3.8,10.1c0-3.5,2.8-6.3,6.3-6.3c1.7,0,3.3,0.7,4.4,1.8c1.2,1.1,1.8,2.7,1.8,4.3     c1.3,0,2.5-0.1,3.8-0.1C20.1,4.3,15.4-0.1,9.8,0C7.3,0.1,4.8,1.1,3,3C1,4.8,0,7.4,0,10.1c0,0,0,0,0,0.1     C1.3,10.2,2.5,10.2,3.8,10.1C3.9,10.2,3.8,10.1,3.8,10.1z"/>
		</g>
		<g id="Group_2" transform="translate(97.059 0.55)">
			<path id="Path_6" class="st1" d="M3.3,14.2c0.4,0.2,0.9,0.4,1.4,0.6c3.8-0.5,7.6-1,11.4-1.5c-0.1-0.1-0.2-0.1-0.2-0.2     c-2-0.9-4.1-1.4-6.2-1.4c-1.5,0-3.1-0.3-4.5-0.9c-0.8-0.5-1.2-1.5-1.2-3.1c0-0.9,0.3-1.8,0.8-2.5c0.5-0.9,1.5-1.4,2.5-1.4h8.2     c1,0,1.9-0.8,1.9-1.9c0,0,0,0,0-0.1c0-0.5-0.2-1-0.6-1.4C16.4,0.2,15.9,0,15.4,0H7.2c-2,0-4,0.9-5.2,2.4C0.7,3.9,0,5.8,0,7.7     C0,10.8,1.1,13,3.3,14.2z"/>
			<path id="Path_7" class="st1" d="M18.7,17c-1.3,0.2-2.6,0.4-3.9,0.5c0.3,0.8,0.4,1.6,0.4,2.4c0,1.2-0.4,2.3-1.3,3.1     c-1,0.8-2.2,1.2-3.5,1.1H1.9C0.9,24,0,24.9,0,26c0,0,0,0,0,0c0,0.5,0.2,1,0.6,1.4c0.4,0.4,0.9,0.6,1.4,0.6h8.4     c2.3,0.1,4.5-0.7,6.2-2.2c1.6-1.5,2.5-3.6,2.5-5.7C19.1,19,19,18,18.7,17z"/>
		</g>
		<g id="Group_3" transform="translate(119.059 8.211)">
			<path id="Path_8" class="st1" d="M3.8,1.9C3.9,0.9,3.1,0,2,0C2,0,2,0,1.9,0c-0.5,0-1,0.2-1.4,0.6C0.2,0.9,0,1.4,0,1.9v2.7     C1.3,4.4,2.6,4.2,3.9,4L3.8,1.9z"/>
			<path id="Path_9" class="st1" d="M18.3,0.6C18,0.2,17.5,0,17,0c-0.5,0-1,0.2-1.4,0.6c-0.3,0.3-0.5,0.8-0.5,1.2     c1.2-0.3,2.4-0.5,3.6-0.8C18.5,0.8,18.4,0.7,18.3,0.6z"/>
			<path id="Path_10" class="st1" d="M15,6.1v4.1c0,1.6-0.6,3.2-1.6,4.4c-1,1.2-2.4,1.8-3.9,1.8c-1.5,0-3-0.7-4-1.8     c-1.1-1.2-1.7-2.8-1.6-4.4V8.2C2.6,8.4,1.3,8.6,0,8.8v1.3c-0.1,2.7,0.9,5.2,2.8,7.2c3.2,3.5,8.6,4,12.3,1v0     c0,1.1,0.9,1.9,1.9,1.9c0.5,0,1-0.2,1.4-0.6c0.4-0.4,0.6-0.9,0.6-1.4V5.2C17.6,5.5,16.3,5.8,15,6.1z"/>
		</g>
		<g id="Group_4" transform="translate(142.338 0.553)">
			<path id="Path_11" class="st1" d="M0,26c0,0.5,0.2,1,0.6,1.4c0.4,0.4,0.8,0.6,1.4,0.6c0.5,0,1-0.2,1.4-0.6     C3.7,27,3.9,26.5,3.9,26v-15c-1.2,0.3-2.5,0.6-3.8,0.9L0,26L0,26z"/>
			<path id="Path_12" class="st1" d="M3.3,0.6C2.9,0.2,2.4,0,1.9,0C0.9,0,0,0.9,0,1.9v5.6c1.3-0.3,2.6-0.6,3.8-1V1.9     C3.9,1.4,3.7,0.9,3.3,0.6z"/>
		</g>
		<g id="Group_5" transform="translate(151.142)">
			<path id="Path_13" class="st1" d="M3.8,1.9C3.8,0.9,3,0,1.9,0c0,0,0,0,0,0c-0.5,0-1,0.2-1.4,0.6C0.2,0.9,0,1.4,0,1.9v3.9     c1.3-0.4,2.6-0.7,3.8-1.1L3.8,1.9z"/>
			<path id="Path_14" class="st1" d="M10.1,24.6c-3.5,0-6.3-2.8-6.3-6.3c0,0,0,0,0,0v-6.3h6.3c0.5,0,1-0.2,1.4-0.6     c0.4-0.4,0.6-0.8,0.6-1.4c0-1.1-0.9-1.9-1.9-1.9c0,0,0,0,0,0H6.9c-2.1,0.6-4.4,1.3-6.9,2v8.1c0,5.6,4.5,10.1,10.1,10.1     c0.5,0,1-0.2,1.4-0.6c0.4-0.4,0.6-0.9,0.6-1.4C12,25.5,11.2,24.6,10.1,24.6L10.1,24.6z"/>
		</g>
		<path id="Path_15" class="st1" d="M174.5,8.2c-5.6,0-10.1,4.5-10.1,10.1c0,0,0,0,0,0c0,5.6,4.5,10.1,10.1,10.1    c1.5,0.1,2.9-0.3,4.2-0.9c0.5-0.2,0.8-0.7,0.9-1.1c0.2-0.5,0.1-1-0.2-1.5c-0.2-0.5-0.6-0.8-1.1-0.9c-0.5-0.1-1,0-1.5,0.2    c-0.8,0.3-1.6,0.4-2.4,0.5c-3.5,0-6.3-2.8-6.3-6.3c0,0,0,0,0,0c0-3.5,2.8-6.3,6.3-6.3c3.5,0,6.3,2.8,6.3,6.3v8.2    c0,0.5,0.2,1,0.5,1.4c0.4,0.4,0.9,0.6,1.4,0.6c0.5,0,1-0.2,1.4-0.6c0.4-0.4,0.6-0.9,0.6-1.4v-8.2C184.6,12.7,180.1,8.2,174.5,8.2    C174.5,8.2,174.5,8.2,174.5,8.2z"/>
		<path id="Path_16" class="st1" d="M204.5,11.2c-3.2-3.5-8.6-3.9-12.3-1v0c0-1-0.8-1.9-1.9-1.9c0,0,0,0-0.1,0c-0.5,0-1,0.2-1.4,0.6    c-0.4,0.4-0.6,0.9-0.6,1.4v16.4c0,0.5,0.2,1,0.6,1.4c0.4,0.4,0.8,0.6,1.4,0.6c0.5,0,1-0.2,1.4-0.6c0.4-0.4,0.6-0.9,0.6-1.4v-8.2    c0-1.6,0.6-3.2,1.7-4.4c1.8-2.2,5.1-2.4,7.3-0.6c0.2,0.2,0.4,0.4,0.6,0.6c1.1,1.2,1.7,2.8,1.6,4.4v8.2c0,1.1,0.9,1.9,1.9,1.9    c0.5,0,1-0.2,1.4-0.6c0.4-0.4,0.6-0.9,0.6-1.4v-8.2C207.4,15.7,206.4,13.1,204.5,11.2z"/>
		<g id="Group_6" transform="translate(69.924 0.121)">
			<path id="Path_17" class="st0" d="M1.9,0C0.9,0,0,0.9,0,1.9v15.9c1.3-0.1,2.6-0.1,3.8-0.2V1.9c0-0.5-0.2-1-0.6-1.4     C2.9,0.2,2.4,0,1.9,0z"/>
			<path id="Path_18" class="st0" d="M12.7,17.1l4.8-4.6c0.4-0.3,0.6-0.8,0.7-1.3c0.2-0.8-0.1-1.6-0.6-2.1c-0.4-0.5-1.1-0.8-1.7-0.8     c-0.6,0-1.3,0.2-1.7,0.7l-4,3.8l-3.9,4.3l-0.4,0.4c0.9-0.1,1.9-0.1,2.8-0.2C10,17.2,11.4,17.1,12.7,17.1z"/>
			<path id="Path_19" class="st0" d="M0,26c0,0.5,0.2,1,0.6,1.4c0.3,0.4,0.8,0.6,1.4,0.6c0.5,0,1-0.2,1.4-0.6     C3.7,27,3.9,26.5,3.8,26v-5C2.6,21,1.3,21,0,21L0,26z"/>
			<path id="Path_20" class="st0" d="M17.8,23.5l-4-2.9c-2.6,0.1-5.2,0.2-7.8,0.3C6.1,21,6.1,21,6.2,21.1l8.8,6.3     c0.4,0.3,0.9,0.5,1.4,0.5c1.4,0,2.4-1.1,2.4-2.5c0-0.1,0-0.2,0-0.4C18.7,24.4,18.4,23.9,17.8,23.5z"/>
		</g>
		<path id="Path_21" class="st1" d="M76.1,17.2c-0.2,0.1-0.3,0.3-0.4,0.4c0,0,0,0,0,0L76.1,17.2z"/>
		<path id="Path_22" class="st1" d="M75.8,17.6C75.7,17.6,75.7,17.6,75.8,17.6"/>
	</g>
	<g id="Group_9" transform="translate(166.582 1)">
		<path id="Path_23" class="st2" d="M33.1,1.3c0,0,3.2-1.5,5.6-1C38.6,0.3,35.5,2.7,33.1,1.3z"/>
		<g id="Group_8">
			<path id="Path_24" class="st2" d="M9.9,1L4.5,3.9l0.7,0.4l5.7-3C10.6,1.3,10.3,1.2,9.9,1z"/>
			<path id="Path_25" class="st2" d="M40.4,0.9c0,0-0.8-0.4-2.4,0.4c-1.6,0.8-3.3,1.7-5.4,0.3l-6.8,4.1c-0.6,0.5-1.5,0.5-2.2,0.1     c-1.4-0.6-11.6-4-11.6-4s-0.1,0-0.2-0.1L6,4.9l8.1,5c0,0,1.3,0.8,0.4,1.5c-1,0.7-2,1.4-3.1,2l-9-0.6c-1,0-1.9,0.5-2.5,1.3     l3.9,2.8l16-3.1L40.1,3C40.1,3,42.3,1.8,40.4,0.9z"/>
			<path id="Path_26" class="st2" d="M8.9,0.7C6.2,0,2.2-0.7,0.3,1.3l3.4,2.1L8.9,0.7z"/>
		</g>
	</g>
	<g id="Group_10" transform="translate(13.367 49.105)">
		<path id="Path_27" class="st3" d="M0.5,8.4L0.1,8.3l0.1-0.8C1,7.7,1.8,7.8,2.6,7.8c1.2,0,1.8-0.6,1.8-1.6c0-0.2,0-0.5-0.2-0.7    C4.1,5.2,3.9,5.1,3.7,5C3.3,4.9,2.9,4.8,2.5,4.7C2,4.6,1.5,4.5,1,4.2C0.7,4.1,0.4,3.9,0.3,3.5C0.1,3.2,0,2.8,0,2.4    c0-1.5,0.9-2.2,2.6-2.2c0.8,0,1.7,0.1,2.5,0.2L5,1.2C3.9,1,3.1,1,2.7,1C1.5,1,0.9,1.4,0.9,2.3c0,0.3,0,0.5,0.2,0.8    c0.1,0.2,0.4,0.4,0.6,0.4C2.1,3.7,2.6,3.8,3,3.9C3.5,4,3.9,4.1,4.4,4.3C4.6,4.5,4.9,4.7,5.1,5c0.2,0.3,0.2,0.7,0.2,1.1    c0,1.7-0.9,2.5-2.6,2.5C1.9,8.6,1.2,8.5,0.5,8.4z"/>
		<path id="Path_28" class="st3" d="M10.8,8.3c-0.3-0.2-0.5-0.5-0.6-0.9c-0.1-0.6-0.2-1.2-0.2-1.8V2.6H11v3.1c0,0.4,0,0.9,0.1,1.3    c0,0.2,0.2,0.5,0.3,0.6c0.2,0.1,0.5,0.2,0.8,0.2c0.6,0,1.1-0.2,1.7-0.4V2.6h0.9v5.9h-0.9V8.1c-0.3,0.2-0.6,0.3-0.9,0.4    c-0.3,0.1-0.6,0.1-0.9,0.1C11.6,8.6,11.2,8.5,10.8,8.3z"/>
		<path id="Path_29" class="st3" d="M19.9,0h0.9v8.5h-0.9V0z"/>
		<path id="Path_30" class="st3" d="M26.8,8.4c-0.2-0.2-0.4-0.4-0.5-0.7c-0.1-0.4-0.2-0.9-0.1-1.3V3.3h-0.8V2.6h0.8V0.8H27v1.8h1.9    v0.8H27v2.8c0,0.3,0,0.7,0,1c0,0.4,0.3,0.7,0.7,0.7c0,0,0.1,0,0.1,0l1.1-0.1L29,8.5c-0.4,0.1-0.8,0.1-1.3,0.1    C27.4,8.6,27.1,8.6,26.8,8.4z"/>
		<path id="Path_31" class="st3" d="M33.5,8.2C33.2,7.8,33,7.3,33,6.8c0-0.5,0.1-0.9,0.4-1.3c0.4-0.3,0.9-0.5,1.4-0.5l1.9-0.2V4.4    c0-0.8-0.3-1.1-1-1.1c-0.8,0-1.6,0.1-2.3,0.2l0-0.7c0.8-0.2,1.5-0.2,2.3-0.3c0.5,0,1.1,0.1,1.5,0.5c0.3,0.4,0.5,0.9,0.5,1.5v3    c0,0.3,0.3,0.5,0.7,0.5l0,0.7c-0.5,0-1-0.1-1.4-0.5c-0.7,0.3-1.4,0.5-2.1,0.5C34.2,8.6,33.8,8.5,33.5,8.2z M36.4,7.6l0.3-0.1v-2    l-1.8,0.2c-0.3,0-0.6,0.1-0.8,0.3c-0.2,0.2-0.3,0.5-0.2,0.8c0,0.7,0.3,1.1,0.9,1.1C35.4,7.9,35.9,7.8,36.4,7.6L36.4,7.6z"/>
		<path id="Path_32" class="st3" d="M42.8,2.6h0.9V3c0.3-0.2,0.6-0.3,1-0.4c0.3-0.1,0.6-0.1,0.9-0.1c0.4,0,0.8,0.1,1.2,0.3    C47,3,47.2,3.3,47.3,3.7c0.1,0.6,0.2,1.1,0.2,1.7v3.1h-0.9V5.4c0-0.4,0-0.9-0.1-1.3c0-0.3-0.2-0.5-0.4-0.7    c-0.2-0.1-0.5-0.2-0.8-0.2c-0.3,0-0.6,0-0.8,0.1c-0.2,0.1-0.5,0.1-0.7,0.2l-0.2,0.1v4.8h-0.9L42.8,2.6L42.8,2.6z"/>
		<path id="Path_33" class="st3" d="M60.4,1.1h-2.5V0.3h5.9v0.8h-2.5v7.4h-0.9L60.4,1.1z"/>
		<path id="Path_34" class="st3" d="M67.2,2.6h0.9v0.8c0.7-0.5,1.4-0.8,2.2-0.9v0.9c-0.3,0.1-0.7,0.2-1,0.3C69,3.7,68.7,3.9,68.4,4    l-0.3,0.2v4.3h-0.9L67.2,2.6L67.2,2.6z"/>
		<path id="Path_35" class="st3" d="M74.8,8.2c-0.3-0.4-0.5-0.8-0.4-1.3c0-0.5,0.1-0.9,0.4-1.3c0.4-0.3,0.9-0.5,1.4-0.5L78,4.9V4.4    c0-0.8-0.3-1.1-1-1.1c-0.8,0-1.6,0.1-2.3,0.2l0-0.7c0.8-0.2,1.5-0.2,2.3-0.3c0.9-0.2,1.7,0.4,1.9,1.3c0,0.2,0,0.4,0,0.6v3    c0,0.3,0.3,0.5,0.7,0.5l0,0.7c-0.5,0-1-0.1-1.4-0.5c-0.7,0.3-1.4,0.5-2.1,0.5C75.6,8.6,75.1,8.5,74.8,8.2z M77.8,7.6L78,7.5v-2    l-1.8,0.2c-0.3,0-0.6,0.1-0.8,0.3c-0.2,0.2-0.3,0.5-0.2,0.8c0,0.7,0.3,1.1,0.9,1.1C76.7,7.9,77.2,7.8,77.8,7.6z"/>
		<path id="Path_36" class="st3" d="M83.5,2.6h0.9l1.4,5.1h0.4l1.4-5.1h0.9l-1.7,5.9h-1.8L83.5,2.6z"/>
		<path id="Path_37" class="st3" d="M93.4,7.9c-0.4-0.7-0.6-1.4-0.6-2.2c-0.1-0.9,0.1-1.7,0.6-2.4c1-1,2.6-1.1,3.7-0.1    c0.4,0.6,0.6,1.3,0.6,2.1l0,0.7h-3.9c0,0.4,0,0.8,0.2,1.1c0.1,0.3,0.3,0.5,0.5,0.6c0.3,0.1,0.7,0.2,1.1,0.2c0.2,0,0.5,0,0.8,0    s0.6,0,0.8-0.1l0.3,0l0,0.7c-0.7,0.1-1.4,0.2-2.2,0.2C94.6,8.7,93.9,8.4,93.4,7.9z M96.8,5.2c0-0.5-0.1-1.1-0.3-1.5    c-0.3-0.3-0.7-0.5-1.1-0.5c-0.5,0-0.9,0.1-1.2,0.5c-0.3,0.4-0.4,1-0.4,1.5H96.8L96.8,5.2z"/>
		<path id="Path_38" class="st3" d="M102.5,0h0.9v8.5h-0.9V0z"/>
		<path id="Path_39" class="st3" d="M119.1,6.4h-3.5L115,8.5h-0.9l2.2-8.2h2l2.2,8.2h-0.9L119.1,6.4z M115.8,5.6h3.1l-1.2-4.5H117    L115.8,5.6z"/>
		<path id="Path_40" class="st3" d="M125.3,10.9c-0.4-0.3-0.6-0.8-0.6-1.3c0-0.2,0-0.4,0.1-0.6c0.1-0.2,0.2-0.3,0.3-0.4    c0.2-0.2,0.4-0.3,0.6-0.5c-0.1-0.1-0.2-0.2-0.3-0.3c-0.1-0.1-0.1-0.3-0.1-0.5c0-0.1,0-0.2,0.1-0.3c0.1-0.2,0.2-0.4,0.3-0.6    c-0.7-0.3-1-1-0.9-1.8c0-0.6,0.2-1.1,0.6-1.5c0.5-0.4,1.1-0.5,1.7-0.5c0.4,0,0.8,0.1,1.2,0.2l1.8,0v0.8l-1.1,0    c0.1,0.1,0.2,0.3,0.3,0.5c0.1,0.2,0.1,0.5,0.1,0.7c0.1,0.6-0.1,1.1-0.5,1.5c-0.5,0.3-1.1,0.5-1.7,0.5c-0.2,0-0.4,0-0.6,0    c-0.1,0.2-0.1,0.3-0.2,0.4c0,0.1-0.1,0.2-0.1,0.3c0,0.2,0.1,0.3,0.2,0.4c0.2,0.1,0.5,0.1,0.8,0.1h0.5c0.4,0,0.8,0,1.3,0.1    c0.3,0.1,0.6,0.2,0.7,0.5c0.2,0.3,0.3,0.7,0.2,1.1c0,0.6-0.2,1.1-0.6,1.5c-0.6,0.4-1.4,0.5-2.1,0.5    C126.6,11.3,125.9,11.2,125.3,10.9z M128.7,10.3c0.4-0.4,0.5-1,0.3-1.5c-0.1-0.1-0.3-0.2-0.4-0.3c-0.3-0.1-0.6-0.1-0.9-0.1    l-1.3-0.1c-0.2,0.1-0.4,0.3-0.5,0.5c-0.1,0.2-0.1,0.4-0.1,0.6c0,0.3,0.1,0.7,0.4,0.9c0.4,0.2,0.8,0.3,1.3,0.2    C127.8,10.6,128.2,10.5,128.7,10.3L128.7,10.3z M128.1,5.5c0.4-0.6,0.4-1.4,0-2c-0.3-0.2-0.7-0.3-1-0.3c-0.4,0-0.7,0.1-1,0.3    c-0.2,0.3-0.3,0.6-0.3,1c0,0.4,0.1,0.7,0.3,1c0.3,0.2,0.7,0.3,1,0.3C127.5,5.8,127.8,5.7,128.1,5.5L128.1,5.5z"/>
		<path id="Path_41" class="st3" d="M134.8,7.9c-0.4-0.7-0.6-1.4-0.6-2.2c-0.1-0.9,0.1-1.7,0.6-2.4c1-1,2.6-1.1,3.7-0.1    c0.4,0.6,0.6,1.3,0.6,2.1l0,0.7h-3.9c0,0.4,0,0.8,0.2,1.1c0.1,0.3,0.3,0.5,0.5,0.6c0.3,0.1,0.7,0.2,1.1,0.2c0.2,0,0.5,0,0.8,0    s0.6,0,0.8-0.1l0.3,0l0,0.7c-0.7,0.1-1.4,0.2-2.2,0.2C136,8.7,135.3,8.4,134.8,7.9z M138.2,5.2c0-0.5-0.1-1.1-0.3-1.5    c-0.3-0.3-0.7-0.5-1.1-0.5c-0.5,0-0.9,0.1-1.2,0.5c-0.3,0.4-0.4,1-0.4,1.5H138.2L138.2,5.2z"/>
		<path id="Path_42" class="st3" d="M144,2.6h0.9V3c0.3-0.2,0.6-0.3,1-0.4c0.3-0.1,0.6-0.1,0.9-0.1c0.4,0,0.8,0.1,1.2,0.3    c0.3,0.2,0.5,0.5,0.6,0.9c0.1,0.6,0.2,1.1,0.2,1.7v3.1h-0.9V5.4c0-0.4,0-0.9-0.1-1.3c0-0.3-0.2-0.5-0.4-0.7    c-0.2-0.1-0.5-0.2-0.8-0.2c-0.3,0-0.6,0-0.8,0.1c-0.2,0.1-0.5,0.1-0.7,0.2l-0.2,0.1v4.8H144V2.6z"/>
		<path id="Path_43" class="st3" d="M154.5,8.3c-0.4-0.2-0.6-0.6-0.7-1c-0.2-0.6-0.2-1.2-0.2-1.8c0-0.8,0.1-1.6,0.5-2.2    c0.4-0.6,1.1-0.9,1.8-0.8c0.2,0,0.5,0,0.7,0s0.6,0.1,1,0.2l0,0.7c-0.5-0.1-1-0.1-1.4-0.1c-0.4,0-0.7,0.1-1,0.2    c-0.3,0.2-0.4,0.4-0.5,0.7c-0.1,0.5-0.2,0.9-0.1,1.4c0,0.5,0,0.9,0.1,1.3c0.1,0.3,0.3,0.5,0.5,0.7c0.3,0.2,0.7,0.2,1.1,0.2    l1.4-0.1l0,0.7c-0.6,0.1-1.1,0.1-1.7,0.2C155.4,8.6,154.9,8.5,154.5,8.3z"/>
		<path id="Path_44" class="st3" d="M162.3,0.2h0.9v1h-0.9V0.2z M162.3,2.6h0.9v5.9h-0.9V2.6z"/>
		<path id="Path_45" class="st3" d="M168.6,7.9c-0.4-0.7-0.6-1.4-0.6-2.2c-0.1-0.9,0.1-1.7,0.6-2.4c1-1,2.6-1.1,3.7-0.1    c0.4,0.6,0.6,1.3,0.6,2.1l0,0.7h-3.9c0,0.4,0,0.8,0.2,1.1c0.1,0.3,0.3,0.5,0.5,0.6c0.3,0.1,0.7,0.2,1.1,0.2c0.2,0,0.5,0,0.8,0    s0.6,0,0.8-0.1l0.3,0l0,0.7c-0.7,0.1-1.4,0.2-2.2,0.2C169.8,8.7,169.1,8.4,168.6,7.9z M172,5.2c0-0.5-0.1-1.1-0.3-1.5    c-0.3-0.3-0.7-0.5-1.1-0.5c-0.5,0-0.9,0.1-1.2,0.5c-0.3,0.4-0.4,1-0.4,1.5H172z"/>
		<path id="Path_46" class="st3" d="M177.8,8.4l-0.4-0.1l0-0.8c0.7,0.1,1.4,0.2,2,0.2c0.4,0,0.7-0.1,1.1-0.2    c0.2-0.2,0.4-0.4,0.3-0.7c0-0.2,0-0.4-0.2-0.6c-0.1-0.1-0.3-0.2-0.4-0.3c-0.2-0.1-0.5-0.1-0.8-0.2l-0.3,0    c-0.4-0.1-0.8-0.1-1.1-0.3c-0.2-0.1-0.5-0.3-0.6-0.5c-0.1-0.3-0.2-0.5-0.2-0.8c-0.1-0.5,0.2-1,0.6-1.4c0.5-0.3,1.1-0.4,1.6-0.4    c0.6,0,1.1,0.1,1.7,0.2l0.3,0.1l0,0.8c-0.7-0.1-1.3-0.2-2-0.2c-0.4,0-0.7,0.1-1,0.2c-0.2,0.1-0.4,0.4-0.3,0.7c0,0.2,0,0.4,0.2,0.5    c0.1,0.1,0.3,0.2,0.4,0.3c0.2,0,0.4,0.1,0.8,0.2l0.3,0.1c0.4,0.1,0.8,0.2,1.1,0.3c0.2,0.1,0.5,0.3,0.6,0.5    c0.1,0.3,0.2,0.6,0.2,0.9c0,0.5-0.2,1-0.6,1.4c-0.5,0.3-1.1,0.5-1.7,0.4C178.9,8.6,178.4,8.5,177.8,8.4z"/>
	</g>
</g>
  
</svg>
